<?xml version="1.0" encoding="UTF-8" standalone="no"?>
<!DOCTYPE svg PUBLIC "-//W3C//DTD SVG 1.1//EN"
 "http://www.w3.org/Graphics/SVG/1.1/DTD/svg11.dtd">
<!-- Generated by graphviz version 2.43.0 (0)
 -->
<!-- Title: %3 Pages: 1 -->
<svg width="720pt" height="72pt"
 viewBox="0.00 0.00 720.00 71.95" xmlns="http://www.w3.org/2000/svg" xmlns:xlink="http://www.w3.org/1999/xlink">
<g id="graph0" class="graph" transform="scale(0.2 0.2) rotate(0) translate(4 355.05)">
<title>%3</title>
<polygon fill="white" stroke="transparent" points="-4,4 -4,-355.05 3589,-355.05 3589,4 -4,4"/>
<!-- User -->
<g id="node1" class="node">
<title>User</title>
<polygon fill="none" stroke="black" points="2746,-148.05 2746,-184.05 3585,-184.05 3585,-148.05 2746,-148.05"/>
<text text-anchor="middle" x="3165.5" y="-162.35" font-family="Times,serif" font-size="14.00">UsernameemailpasswordavatarbiolocationroleisVerifiedsocialLoginssellerBadgeratingsfollowersfollowingcreatedAt</text>
</g>
<!-- ProductListing -->
<g id="node2" class="node">
<title>ProductListing</title>
<polygon fill="none" stroke="black" points="1522,-203.05 1522,-239.05 2598,-239.05 2598,-203.05 1522,-203.05"/>
<text text-anchor="middle" x="2060" y="-217.35" font-family="Times,serif" font-size="14.00">ProductListingsellerIdtitledescriptioncategorybrandconditionsizecolormaterialoriginalPricepriceisAuthenticimageslocationstatusauctionIdcreatedAt</text>
</g>
<!-- ProductListing&#45;&gt;User -->
<g id="edge1" class="edge">
<title>ProductListing&#45;&gt;User</title>
<path fill="none" stroke="black" d="M2422.33,-203.04C2541.24,-197.12 2673.6,-190.52 2793.24,-184.56"/>
<polygon fill="black" stroke="black" points="2793.49,-188.05 2803.3,-184.06 2793.14,-181.06 2793.49,-188.05"/>
<text text-anchor="middle" x="2672" y="-194.85" font-family="Times,serif" font-size="14.00">sellerId</text>
</g>
<!-- Offer -->
<g id="node3" class="node">
<title>Offer</title>
<polygon fill="none" stroke="black" points="790,-250.05 790,-286.05 1194,-286.05 1194,-250.05 790,-250.05"/>
<text text-anchor="middle" x="992" y="-264.35" font-family="Times,serif" font-size="14.00">OfferlistingIdbuyerIdsellerIdamountstatustimestamps</text>
</g>
<!-- Offer&#45;&gt;User -->
<g id="edge2" class="edge">
<title>Offer&#45;&gt;User</title>
<path fill="none" stroke="black" d="M1194.13,-265.7C1288.25,-264.59 1401.87,-263.26 1504,-262.05 1990.22,-256.31 2113.25,-287.27 2598,-249.05 2759.6,-236.31 2945.2,-206.12 3058.64,-185.89"/>
<polygon fill="black" stroke="black" points="3059.49,-189.29 3068.72,-184.08 3058.26,-182.4 3059.49,-189.29"/>
<text text-anchor="middle" x="2060" y="-271.85" font-family="Times,serif" font-size="14.00">buyerId/sellerId</text>
</g>
<!-- Offer&#45;&gt;ProductListing -->
<g id="edge3" class="edge">
<title>Offer&#45;&gt;ProductListing</title>
<path fill="none" stroke="black" d="M1194.04,-256.22C1251.22,-253.04 1313.55,-249.73 1371,-247.05 1427.29,-244.43 1486.19,-241.88 1544.82,-239.49"/>
<polygon fill="black" stroke="black" points="1545.14,-242.98 1554.99,-239.07 1544.85,-235.98 1545.14,-242.98"/>
<text text-anchor="middle" x="1437.5" y="-250.85" font-family="Times,serif" font-size="14.00">listingId</text>
</g>
<!-- Auction -->
<g id="node4" class="node">
<title>Auction</title>
<polygon fill="none" stroke="black" points="698.5,-192.05 698.5,-228.05 1285.5,-228.05 1285.5,-192.05 698.5,-192.05"/>
<text text-anchor="middle" x="992" y="-206.35" font-family="Times,serif" font-size="14.00">AuctionlistingIdsellerIdstartBidincrementreservePricebidsendTimeisCompleted</text>
</g>
<!-- Auction&#45;&gt;ProductListing -->
<g id="edge4" class="edge">
<title>Auction&#45;&gt;ProductListing</title>
<path fill="none" stroke="black" d="M1285.52,-209.2C1314.4,-209.14 1343.27,-209.09 1371,-209.05 1430.11,-208.98 1444.89,-208.41 1504,-209.05 1506.58,-209.08 1509.17,-209.11 1511.77,-209.14"/>
<polygon fill="black" stroke="black" points="1511.77,-212.64 1521.81,-209.26 1511.85,-205.64 1511.77,-212.64"/>
<text text-anchor="middle" x="1437.5" y="-212.85" font-family="Times,serif" font-size="14.00">listingId</text>
</g>
<!-- Bid -->
<g id="node5" class="node">
<title>Bid</title>
<polygon fill="none" stroke="black" points="141,-266.05 141,-302.05 358,-302.05 358,-266.05 141,-266.05"/>
<text text-anchor="middle" x="249.5" y="-280.35" font-family="Times,serif" font-size="14.00">BiduserIdamounttimestamp</text>
</g>
<!-- Bid&#45;&gt;User -->
<g id="edge6" class="edge">
<title>Bid&#45;&gt;User</title>
<path fill="none" stroke="black" d="M358.29,-292.58C692.24,-317.22 1738.85,-380.93 2598,-287.05 2777.35,-267.46 2983.54,-215.9 3090.87,-186.81"/>
<polygon fill="black" stroke="black" points="3091.9,-190.15 3100.63,-184.15 3090.06,-183.4 3091.9,-190.15"/>
<text text-anchor="middle" x="1437.5" y="-339.85" font-family="Times,serif" font-size="14.00">userId</text>
</g>
<!-- Bid&#45;&gt;Auction -->
<g id="edge5" class="edge">
<title>Bid&#45;&gt;Auction</title>
<path fill="none" stroke="black" d="M358.26,-271.1C434.4,-262.14 538.88,-250.22 631,-241.05 672.99,-236.87 717.76,-232.75 760.96,-228.94"/>
<polygon fill="black" stroke="black" points="761.37,-232.42 771.02,-228.06 760.76,-225.45 761.37,-232.42"/>
<text text-anchor="middle" x="565" y="-254.85" font-family="Times,serif" font-size="14.00">bids</text>
</g>
<!-- Message -->
<g id="node6" class="node">
<title>Message</title>
<polygon fill="none" stroke="black" points="1823,-148.05 1823,-184.05 2297,-184.05 2297,-148.05 1823,-148.05"/>
<text text-anchor="middle" x="2060" y="-162.35" font-family="Times,serif" font-size="14.00">MessagesenderIdreceiverIdcontentimagesisFlaggedtimestamps</text>
</g>
<!-- Message&#45;&gt;User -->
<g id="edge7" class="edge">
<title>Message&#45;&gt;User</title>
<path fill="none" stroke="black" d="M2297.05,-166.05C2424.78,-166.05 2586.53,-166.05 2735.66,-166.05"/>
<polygon fill="black" stroke="black" points="2735.91,-169.55 2745.91,-166.05 2735.91,-162.55 2735.91,-169.55"/>
<text text-anchor="middle" x="2672" y="-169.85" font-family="Times,serif" font-size="14.00">sender/receiver</text>
</g>
<!-- Review -->
<g id="node7" class="node">
<title>Review</title>
<polygon fill="none" stroke="black" points="0,-21.05 0,-57.05 499,-57.05 499,-21.05 0,-21.05"/>
<text text-anchor="middle" x="249.5" y="-35.35" font-family="Times,serif" font-size="14.00">ReviewtransactionIdreviewerIdrevieweeIdratingcommentcreatedAt</text>
</g>
<!-- Review&#45;&gt;User -->
<g id="edge8" class="edge">
<title>Review&#45;&gt;User</title>
<path fill="none" stroke="black" d="M499.42,-24.26C929.03,-2.35 1836.85,27.99 2598,-53.05 2774,-71.79 2976.58,-118.4 3085.44,-145.55"/>
<polygon fill="black" stroke="black" points="3084.81,-149 3095.36,-148.03 3086.51,-142.21 3084.81,-149"/>
<text text-anchor="middle" x="1437.5" y="-4.85" font-family="Times,serif" font-size="14.00">reviewer/reviewee</text>
</g>
<!-- Order -->
<g id="node8" class="node">
<title>Order</title>
<polygon fill="none" stroke="black" points="631,-102.05 631,-138.05 1353,-138.05 1353,-102.05 631,-102.05"/>
<text text-anchor="middle" x="992" y="-116.35" font-family="Times,serif" font-size="14.00">OrderbuyerIdsellerIdlistingIdpaymentStatusescrowStatusshippingStatusshippingDetailscreatedAt</text>
</g>
<!-- Review&#45;&gt;Order -->
<g id="edge9" class="edge">
<title>Review&#45;&gt;Order</title>
<path fill="none" stroke="black" d="M373.26,-57.1C447.71,-67.64 544.7,-80.68 631,-90.05 667.49,-94.02 706.11,-97.74 743.97,-101.11"/>
<polygon fill="black" stroke="black" points="743.83,-104.62 754.1,-102.01 744.45,-97.64 743.83,-104.62"/>
<text text-anchor="middle" x="565" y="-90.85" font-family="Times,serif" font-size="14.00">transactionId</text>
</g>
<!-- Order&#45;&gt;User -->
<g id="edge10" class="edge">
<title>Order&#45;&gt;User</title>
<path fill="none" stroke="black" d="M1353.31,-113.6C1678.69,-109.52 2170.59,-107.7 2598,-124.05 2717.58,-128.63 2851.06,-138.3 2958.41,-147.21"/>
<polygon fill="black" stroke="black" points="2958.13,-150.7 2968.39,-148.05 2958.72,-143.73 2958.13,-150.7"/>
<text text-anchor="middle" x="2060" y="-127.85" font-family="Times,serif" font-size="14.00">buyer/seller</text>
</g>
<!-- Order&#45;&gt;ProductListing -->
<g id="edge11" class="edge">
<title>Order&#45;&gt;ProductListing</title>
<path fill="none" stroke="black" d="M1171.37,-138.08C1269.99,-149.56 1394.39,-166.54 1504,-189.05 1512.13,-190.72 1513.8,-192.73 1522,-194.05 1539.49,-196.89 1557.35,-199.45 1575.41,-201.76"/>
<polygon fill="black" stroke="black" points="1575.1,-205.25 1585.46,-203.02 1575.97,-198.31 1575.1,-205.25"/>
<text text-anchor="middle" x="1437.5" y="-192.85" font-family="Times,serif" font-size="14.00">listingId</text>
</g>
<!-- AdminFlag -->
<g id="node9" class="node">
<title>AdminFlag</title>
<polygon fill="none" stroke="black" points="784,-44.05 784,-80.05 1200,-80.05 1200,-44.05 784,-44.05"/>
<text text-anchor="middle" x="992" y="-58.35" font-family="Times,serif" font-size="14.00">AdminFlaglistingId/userIdreasonreportedByreviewedBy</text>
</g>
<!-- AdminFlag&#45;&gt;User -->
<g id="edge12" class="edge">
<title>AdminFlag&#45;&gt;User</title>
<path fill="none" stroke="black" d="M1200.16,-58.3C1506.27,-54.45 2097.24,-53.5 2598,-91.05 2753.69,-102.73 2932.05,-128.39 3046.37,-146.43"/>
<polygon fill="black" stroke="black" points="3046.12,-149.94 3056.54,-148.05 3047.21,-143.02 3046.12,-149.94"/>
<text text-anchor="middle" x="2060" y="-94.85" font-family="Times,serif" font-size="14.00">reportedBy/reviewedBy</text>
</g>
<!-- AdminFlag&#45;&gt;ProductListing -->
<g id="edge13" class="edge">
<title>AdminFlag&#45;&gt;ProductListing</title>
<path fill="none" stroke="black" d="M1200.45,-70.75C1250.76,-75.37 1304.12,-82.4 1353,-93.05 1422.64,-108.24 1453.04,-97.22 1504,-147.05 1519.99,-162.69 1503.89,-180.92 1522,-194.05 1523.94,-195.46 1526.02,-196.83 1528.24,-198.14"/>
<polygon fill="black" stroke="black" points="1526.94,-201.42 1537.41,-203.01 1530.22,-195.23 1526.94,-201.42"/>
<text text-anchor="middle" x="1437.5" y="-150.85" font-family="Times,serif" font-size="14.00">listingId</text>
</g>
</g>
</svg>
